<mxfile host="app.diagrams.net" agent="Mozilla/5.0 (Windows NT 10.0; Win64; x64) AppleWebKit/537.36 (KHTML, like Gecko) Chrome/130.0.0.0 Safari/537.36 Edg/130.0.0.0" version="24.8.3">
  <diagram name="Page-1" id="9G_F4A3TiD91wjMrnQvh">
    <mxGraphModel dx="1717" dy="1072" grid="1" gridSize="10" guides="1" tooltips="1" connect="1" arrows="1" fold="1" page="1" pageScale="1" pageWidth="850" pageHeight="1100" math="0" shadow="0">
      <root>
        <mxCell id="0" />
        <mxCell id="1" parent="0" />
        <mxCell id="ctIr4bB5rEvREcMylE48-22" value="Start" style="whiteSpace=wrap;strokeWidth=2;" parent="1" vertex="1">
          <mxGeometry x="1015.5" y="40" width="51" height="34" as="geometry" />
        </mxCell>
        <mxCell id="ctIr4bB5rEvREcMylE48-23" value="User" style="rhombus;strokeWidth=2;whiteSpace=wrap;" parent="1" vertex="1">
          <mxGeometry x="1018" y="104" width="46" height="46" as="geometry" />
        </mxCell>
        <mxCell id="ctIr4bB5rEvREcMylE48-24" value="Register" style="whiteSpace=wrap;strokeWidth=2;" parent="1" vertex="1">
          <mxGeometry x="1004" y="207" width="76" height="34" as="geometry" />
        </mxCell>
        <mxCell id="ctIr4bB5rEvREcMylE48-26" value="Login" style="whiteSpace=wrap;strokeWidth=2;" parent="1" vertex="1">
          <mxGeometry x="1212" y="110" width="61" height="34" as="geometry" />
        </mxCell>
        <mxCell id="ctIr4bB5rEvREcMylE48-27" value="Searching &amp; Filtering" style="whiteSpace=wrap;strokeWidth=2;" parent="1" vertex="1">
          <mxGeometry x="775" y="525.5" width="122" height="34" as="geometry" />
        </mxCell>
        <mxCell id="ctIr4bB5rEvREcMylE48-49" value="Managing Furniture Listings and 3D Models" style="whiteSpace=wrap;strokeWidth=2;" parent="1" vertex="1">
          <mxGeometry x="1702" y="460" width="240" height="34" as="geometry" />
        </mxCell>
        <mxCell id="ctIr4bB5rEvREcMylE48-57" value="Navigate management" style="whiteSpace=wrap;strokeWidth=2;" parent="1" vertex="1">
          <mxGeometry x="1652" y="533" width="130" height="34" as="geometry" />
        </mxCell>
        <mxCell id="ctIr4bB5rEvREcMylE48-58" value="Managing Orders and Generating Reports" style="whiteSpace=wrap;strokeWidth=2;" parent="1" vertex="1">
          <mxGeometry x="2006" y="460" width="242" height="34" as="geometry" />
        </mxCell>
        <mxCell id="ctIr4bB5rEvREcMylE48-61" value="" style="curved=1;startArrow=none;endArrow=block;exitX=0.5;exitY=1;entryX=0.49;entryY=0;rounded=0;" parent="1" source="ctIr4bB5rEvREcMylE48-22" target="ctIr4bB5rEvREcMylE48-23" edge="1">
          <mxGeometry relative="1" as="geometry">
            <Array as="points" />
          </mxGeometry>
        </mxCell>
        <mxCell id="ctIr4bB5rEvREcMylE48-115" value="" style="endArrow=classic;html=1;rounded=0;" parent="1" edge="1">
          <mxGeometry width="50" height="50" relative="1" as="geometry">
            <mxPoint x="1066" y="126.44" as="sourcePoint" />
            <mxPoint x="1210" y="128" as="targetPoint" />
          </mxGeometry>
        </mxCell>
        <mxCell id="ctIr4bB5rEvREcMylE48-116" value="Registered User" style="edgeLabel;html=1;align=center;verticalAlign=middle;resizable=0;points=[];" parent="ctIr4bB5rEvREcMylE48-115" vertex="1" connectable="0">
          <mxGeometry x="0.008" y="2" relative="1" as="geometry">
            <mxPoint as="offset" />
          </mxGeometry>
        </mxCell>
        <mxCell id="ctIr4bB5rEvREcMylE48-117" value="" style="endArrow=classic;html=1;rounded=0;" parent="1" edge="1">
          <mxGeometry width="50" height="50" relative="1" as="geometry">
            <mxPoint x="1040.63" y="151" as="sourcePoint" />
            <mxPoint x="1041" y="205" as="targetPoint" />
          </mxGeometry>
        </mxCell>
        <mxCell id="ctIr4bB5rEvREcMylE48-118" value="Visitor" style="edgeLabel;html=1;align=center;verticalAlign=middle;resizable=0;points=[];" parent="ctIr4bB5rEvREcMylE48-117" vertex="1" connectable="0">
          <mxGeometry x="-0.0088" y="2" relative="1" as="geometry">
            <mxPoint y="-4" as="offset" />
          </mxGeometry>
        </mxCell>
        <mxCell id="ctIr4bB5rEvREcMylE48-119" value="" style="curved=1;startArrow=none;endArrow=block;exitX=0.5;exitY=1;rounded=0;" parent="1" edge="1">
          <mxGeometry relative="1" as="geometry">
            <Array as="points" />
            <mxPoint x="1041.5" y="241" as="sourcePoint" />
            <mxPoint x="1041" y="267" as="targetPoint" />
          </mxGeometry>
        </mxCell>
        <mxCell id="ctIr4bB5rEvREcMylE48-122" value="" style="rhombus;whiteSpace=wrap;html=1;" parent="1" vertex="1">
          <mxGeometry x="1222.5" y="196" width="40" height="40" as="geometry" />
        </mxCell>
        <mxCell id="ctIr4bB5rEvREcMylE48-123" value="" style="curved=1;startArrow=none;endArrow=block;exitX=0.5;exitY=1;rounded=0;" parent="1" target="ctIr4bB5rEvREcMylE48-122" edge="1">
          <mxGeometry relative="1" as="geometry">
            <Array as="points" />
            <mxPoint x="1242.07" y="144" as="sourcePoint" />
            <mxPoint x="1242" y="180" as="targetPoint" />
          </mxGeometry>
        </mxCell>
        <mxCell id="ctIr4bB5rEvREcMylE48-124" value="valid login" style="edgeLabel;html=1;align=center;verticalAlign=middle;resizable=0;points=[];" parent="ctIr4bB5rEvREcMylE48-123" vertex="1" connectable="0">
          <mxGeometry x="0.0807" relative="1" as="geometry">
            <mxPoint as="offset" />
          </mxGeometry>
        </mxCell>
        <mxCell id="ctIr4bB5rEvREcMylE48-125" value="" style="endArrow=classic;html=1;rounded=0;" parent="1" edge="1">
          <mxGeometry width="50" height="50" relative="1" as="geometry">
            <mxPoint x="1262.5" y="215.57" as="sourcePoint" />
            <mxPoint x="1280" y="130" as="targetPoint" />
            <Array as="points">
              <mxPoint x="1310" y="216" />
              <mxPoint x="1310" y="130" />
            </Array>
          </mxGeometry>
        </mxCell>
        <mxCell id="ctIr4bB5rEvREcMylE48-129" value="invalid" style="edgeLabel;html=1;align=center;verticalAlign=middle;resizable=0;points=[];" parent="ctIr4bB5rEvREcMylE48-125" vertex="1" connectable="0">
          <mxGeometry x="0.0804" relative="1" as="geometry">
            <mxPoint as="offset" />
          </mxGeometry>
        </mxCell>
        <mxCell id="ctIr4bB5rEvREcMylE48-126" value="" style="endArrow=classic;html=1;rounded=0;exitX=0;exitY=0.5;exitDx=0;exitDy=0;" parent="1" source="ctIr4bB5rEvREcMylE48-23" edge="1">
          <mxGeometry width="50" height="50" relative="1" as="geometry">
            <mxPoint x="918" y="119" as="sourcePoint" />
            <mxPoint x="1000" y="340" as="targetPoint" />
            <Array as="points">
              <mxPoint x="950" y="127" />
              <mxPoint x="950" y="320" />
              <mxPoint x="1000" y="320" />
            </Array>
          </mxGeometry>
        </mxCell>
        <mxCell id="GAehadIP4463e_Pyt7AQ-24" value="Visitor" style="edgeLabel;html=1;align=center;verticalAlign=middle;resizable=0;points=[];" parent="ctIr4bB5rEvREcMylE48-126" vertex="1" connectable="0">
          <mxGeometry x="-0.0634" relative="1" as="geometry">
            <mxPoint as="offset" />
          </mxGeometry>
        </mxCell>
        <mxCell id="ctIr4bB5rEvREcMylE48-127" value="" style="endArrow=classic;html=1;rounded=0;" parent="1" edge="1">
          <mxGeometry width="50" height="50" relative="1" as="geometry">
            <mxPoint x="1040.41" y="302" as="sourcePoint" />
            <mxPoint x="1040" y="340" as="targetPoint" />
          </mxGeometry>
        </mxCell>
        <mxCell id="ctIr4bB5rEvREcMylE48-128" value="" style="endArrow=classic;html=1;rounded=0;exitX=0.5;exitY=1;exitDx=0;exitDy=0;" parent="1" source="ctIr4bB5rEvREcMylE48-122" edge="1">
          <mxGeometry width="50" height="50" relative="1" as="geometry">
            <mxPoint x="1080" y="360" as="sourcePoint" />
            <mxPoint x="1090" y="340" as="targetPoint" />
            <Array as="points">
              <mxPoint x="1243" y="320" />
              <mxPoint x="1090" y="320" />
            </Array>
          </mxGeometry>
        </mxCell>
        <mxCell id="ctIr4bB5rEvREcMylE48-130" value="verify email" style="whiteSpace=wrap;strokeWidth=2;" parent="1" vertex="1">
          <mxGeometry x="1003" y="268" width="76" height="34" as="geometry" />
        </mxCell>
        <mxCell id="ctIr4bB5rEvREcMylE48-131" value="" style="shape=link;html=1;rounded=0;" parent="1" edge="1">
          <mxGeometry width="100" relative="1" as="geometry">
            <mxPoint x="991" y="341" as="sourcePoint" />
            <mxPoint x="1110" y="341" as="targetPoint" />
          </mxGeometry>
        </mxCell>
        <mxCell id="ctIr4bB5rEvREcMylE48-133" value="" style="endArrow=classic;html=1;rounded=0;entryX=0.5;entryY=0;entryDx=0;entryDy=0;" parent="1" edge="1" target="ctIr4bB5rEvREcMylE48-134">
          <mxGeometry width="50" height="50" relative="1" as="geometry">
            <mxPoint x="1060" y="344" as="sourcePoint" />
            <mxPoint x="1060" y="400" as="targetPoint" />
          </mxGeometry>
        </mxCell>
        <mxCell id="ctIr4bB5rEvREcMylE48-134" value="" style="rhombus;whiteSpace=wrap;html=1;" parent="1" vertex="1">
          <mxGeometry x="1039" y="380" width="40" height="40" as="geometry" />
        </mxCell>
        <mxCell id="ctIr4bB5rEvREcMylE48-135" value="" style="endArrow=classic;html=1;rounded=0;exitX=1;exitY=0.5;exitDx=0;exitDy=0;" parent="1" source="ctIr4bB5rEvREcMylE48-134" edge="1">
          <mxGeometry width="50" height="50" relative="1" as="geometry">
            <mxPoint x="963" y="410" as="sourcePoint" />
            <mxPoint x="1990" y="390" as="targetPoint" />
            <Array as="points">
              <mxPoint x="1600" y="320" />
              <mxPoint x="1850" y="310" />
              <mxPoint x="1990" y="310" />
            </Array>
          </mxGeometry>
        </mxCell>
        <mxCell id="ctIr4bB5rEvREcMylE48-136" value="&lt;font style=&quot;font-size: 19px;&quot;&gt;Admin&lt;/font&gt;" style="edgeLabel;html=1;align=center;verticalAlign=middle;resizable=0;points=[];arcSize=12;" parent="ctIr4bB5rEvREcMylE48-135" vertex="1" connectable="0">
          <mxGeometry x="-0.0068" y="-1" relative="1" as="geometry">
            <mxPoint x="263" y="-16" as="offset" />
          </mxGeometry>
        </mxCell>
        <mxCell id="ctIr4bB5rEvREcMylE48-137" value="" style="endArrow=classic;html=1;rounded=0;exitX=0.5;exitY=1;exitDx=0;exitDy=0;" parent="1" edge="1" source="ctIr4bB5rEvREcMylE48-134">
          <mxGeometry width="50" height="50" relative="1" as="geometry">
            <mxPoint x="1060" y="440" as="sourcePoint" />
            <mxPoint x="1060" y="465.5" as="targetPoint" />
          </mxGeometry>
        </mxCell>
        <mxCell id="ctIr4bB5rEvREcMylE48-138" value="User" style="edgeLabel;html=1;align=center;verticalAlign=middle;resizable=0;points=[];" parent="ctIr4bB5rEvREcMylE48-137" vertex="1" connectable="0">
          <mxGeometry x="-0.0716" y="2" relative="1" as="geometry">
            <mxPoint as="offset" />
          </mxGeometry>
        </mxCell>
        <mxCell id="ctIr4bB5rEvREcMylE48-139" value="" style="endArrow=classic;html=1;rounded=0;" parent="1" edge="1">
          <mxGeometry width="50" height="50" relative="1" as="geometry">
            <mxPoint x="870.3800000000001" y="465.5" as="sourcePoint" />
            <mxPoint x="870" y="525.5" as="targetPoint" />
          </mxGeometry>
        </mxCell>
        <mxCell id="ctIr4bB5rEvREcMylE48-156" value="" style="shape=link;html=1;rounded=0;" parent="1" edge="1">
          <mxGeometry width="100" relative="1" as="geometry">
            <mxPoint x="860" y="465.5" as="sourcePoint" />
            <mxPoint x="1110" y="465.5" as="targetPoint" />
          </mxGeometry>
        </mxCell>
        <mxCell id="ctIr4bB5rEvREcMylE48-157" value="3d models &amp; AR preview" style="whiteSpace=wrap;strokeWidth=2;" parent="1" vertex="1">
          <mxGeometry x="905" y="624.5" width="148" height="34" as="geometry" />
        </mxCell>
        <mxCell id="ctIr4bB5rEvREcMylE48-158" value="" style="endArrow=classic;html=1;rounded=0;" parent="1" edge="1">
          <mxGeometry width="50" height="50" relative="1" as="geometry">
            <mxPoint x="1000.3800000000001" y="564.5" as="sourcePoint" />
            <mxPoint x="1000" y="624.5" as="targetPoint" />
          </mxGeometry>
        </mxCell>
        <mxCell id="ctIr4bB5rEvREcMylE48-159" value="Add to cart" style="whiteSpace=wrap;strokeWidth=2;" parent="1" vertex="1">
          <mxGeometry x="1186" y="629.5" width="111" height="34" as="geometry" />
        </mxCell>
        <mxCell id="ctIr4bB5rEvREcMylE48-160" value="" style="endArrow=classic;html=1;rounded=0;entryX=0;entryY=0.5;entryDx=0;entryDy=0;" parent="1" target="ctIr4bB5rEvREcMylE48-194" edge="1">
          <mxGeometry width="50" height="50" relative="1" as="geometry">
            <mxPoint x="1040" y="535.5" as="sourcePoint" />
            <mxPoint x="1160" y="535.5" as="targetPoint" />
            <Array as="points">
              <mxPoint x="1190" y="535.5" />
              <mxPoint x="1190" y="465.5" />
            </Array>
          </mxGeometry>
        </mxCell>
        <mxCell id="ctIr4bB5rEvREcMylE48-163" value="Browse Categories" style="whiteSpace=wrap;strokeWidth=2;" parent="1" vertex="1">
          <mxGeometry x="720" y="610" width="105" height="34" as="geometry" />
        </mxCell>
        <mxCell id="ctIr4bB5rEvREcMylE48-164" value="" style="endArrow=classic;html=1;rounded=0;" parent="1" edge="1">
          <mxGeometry width="50" height="50" relative="1" as="geometry">
            <mxPoint x="771.9700000000001" y="644" as="sourcePoint" />
            <mxPoint x="772" y="670" as="targetPoint" />
          </mxGeometry>
        </mxCell>
        <mxCell id="ctIr4bB5rEvREcMylE48-166" value="" style="endArrow=classic;html=1;rounded=0;entryX=0.75;entryY=0;entryDx=0;entryDy=0;" parent="1" edge="1" target="ctIr4bB5rEvREcMylE48-163">
          <mxGeometry width="50" height="50" relative="1" as="geometry">
            <mxPoint x="800" y="565.5" as="sourcePoint" />
            <mxPoint x="770" y="605.5" as="targetPoint" />
          </mxGeometry>
        </mxCell>
        <mxCell id="ctIr4bB5rEvREcMylE48-167" value="Enter criteria" style="whiteSpace=wrap;strokeWidth=2;" parent="1" vertex="1">
          <mxGeometry x="732.5" y="670" width="80" height="34" as="geometry" />
        </mxCell>
        <mxCell id="ctIr4bB5rEvREcMylE48-168" value="Display Items" style="whiteSpace=wrap;strokeWidth=2;" parent="1" vertex="1">
          <mxGeometry x="730" y="735" width="80" height="34" as="geometry" />
        </mxCell>
        <mxCell id="ctIr4bB5rEvREcMylE48-169" value="" style="endArrow=classic;html=1;rounded=0;" parent="1" edge="1">
          <mxGeometry width="50" height="50" relative="1" as="geometry">
            <mxPoint x="771.9700000000001" y="704" as="sourcePoint" />
            <mxPoint x="772" y="733" as="targetPoint" />
          </mxGeometry>
        </mxCell>
        <mxCell id="ctIr4bB5rEvREcMylE48-170" value="Select item" style="whiteSpace=wrap;strokeWidth=2;" parent="1" vertex="1">
          <mxGeometry x="730" y="800" width="80" height="34" as="geometry" />
        </mxCell>
        <mxCell id="ctIr4bB5rEvREcMylE48-172" value="" style="endArrow=classic;html=1;rounded=0;" parent="1" edge="1">
          <mxGeometry width="50" height="50" relative="1" as="geometry">
            <mxPoint x="771.9700000000001" y="769" as="sourcePoint" />
            <mxPoint x="772" y="798" as="targetPoint" />
          </mxGeometry>
        </mxCell>
        <mxCell id="ctIr4bB5rEvREcMylE48-174" value="" style="endArrow=classic;html=1;rounded=0;" parent="1" edge="1">
          <mxGeometry width="50" height="50" relative="1" as="geometry">
            <mxPoint x="900" y="705.5" as="sourcePoint" />
            <mxPoint x="889.5" y="730.5" as="targetPoint" />
          </mxGeometry>
        </mxCell>
        <mxCell id="ctIr4bB5rEvREcMylE48-175" value="Interact with model" style="whiteSpace=wrap;strokeWidth=2;" parent="1" vertex="1">
          <mxGeometry x="825" y="730.5" width="80" height="34" as="geometry" />
        </mxCell>
        <mxCell id="ctIr4bB5rEvREcMylE48-178" value="Select AR" style="whiteSpace=wrap;strokeWidth=2;" parent="1" vertex="1">
          <mxGeometry x="953.5" y="735.5" width="80" height="34" as="geometry" />
        </mxCell>
        <mxCell id="ctIr4bB5rEvREcMylE48-179" value="" style="endArrow=classic;html=1;rounded=0;" parent="1" edge="1">
          <mxGeometry width="50" height="50" relative="1" as="geometry">
            <mxPoint x="995.4700000000001" y="704.5" as="sourcePoint" />
            <mxPoint x="995.5" y="733.5" as="targetPoint" />
          </mxGeometry>
        </mxCell>
        <mxCell id="ctIr4bB5rEvREcMylE48-187" value="Activate camera" style="whiteSpace=wrap;strokeWidth=2;" parent="1" vertex="1">
          <mxGeometry x="948" y="807.5" width="96" height="34" as="geometry" />
        </mxCell>
        <mxCell id="ctIr4bB5rEvREcMylE48-188" value="" style="endArrow=classic;html=1;rounded=0;" parent="1" edge="1">
          <mxGeometry width="50" height="50" relative="1" as="geometry">
            <mxPoint x="997.9700000000001" y="776.5" as="sourcePoint" />
            <mxPoint x="998" y="805.5" as="targetPoint" />
          </mxGeometry>
        </mxCell>
        <mxCell id="ctIr4bB5rEvREcMylE48-189" value="Augment model" style="whiteSpace=wrap;strokeWidth=2;" parent="1" vertex="1">
          <mxGeometry x="956" y="872.5" width="80" height="34" as="geometry" />
        </mxCell>
        <mxCell id="ctIr4bB5rEvREcMylE48-190" value="" style="endArrow=classic;html=1;rounded=0;" parent="1" edge="1">
          <mxGeometry width="50" height="50" relative="1" as="geometry">
            <mxPoint x="997.9700000000001" y="841.5" as="sourcePoint" />
            <mxPoint x="998" y="870.5" as="targetPoint" />
          </mxGeometry>
        </mxCell>
        <mxCell id="ctIr4bB5rEvREcMylE48-193" value="" style="endArrow=classic;html=1;rounded=0;exitX=0.325;exitY=1.107;exitDx=0;exitDy=0;exitPerimeter=0;" parent="1" edge="1">
          <mxGeometry width="50" height="50" relative="1" as="geometry">
            <mxPoint x="970.1000000000004" y="662.1380000000001" as="sourcePoint" />
            <mxPoint x="950" y="691.5" as="targetPoint" />
          </mxGeometry>
        </mxCell>
        <mxCell id="ctIr4bB5rEvREcMylE48-194" value="" style="rhombus;whiteSpace=wrap;html=1;" parent="1" vertex="1">
          <mxGeometry x="1285.5" y="445.5" width="40" height="40" as="geometry" />
        </mxCell>
        <mxCell id="ctIr4bB5rEvREcMylE48-195" value="" style="endArrow=classic;html=1;rounded=0;entryX=0.5;entryY=0;entryDx=0;entryDy=0;exitX=1;exitY=0.5;exitDx=0;exitDy=0;" parent="1" source="ctIr4bB5rEvREcMylE48-194" target="ctIr4bB5rEvREcMylE48-26" edge="1">
          <mxGeometry width="50" height="50" relative="1" as="geometry">
            <mxPoint x="1187.5" y="582.47" as="sourcePoint" />
            <mxPoint x="1400" y="582" as="targetPoint" />
            <Array as="points">
              <mxPoint x="1440" y="470" />
              <mxPoint x="1440" y="80" />
              <mxPoint x="1243" y="80" />
            </Array>
          </mxGeometry>
        </mxCell>
        <mxCell id="ctIr4bB5rEvREcMylE48-196" value="Visitor" style="edgeLabel;html=1;align=center;verticalAlign=middle;resizable=0;points=[];" parent="ctIr4bB5rEvREcMylE48-195" vertex="1" connectable="0">
          <mxGeometry x="-0.645" y="2" relative="1" as="geometry">
            <mxPoint as="offset" />
          </mxGeometry>
        </mxCell>
        <mxCell id="ctIr4bB5rEvREcMylE48-197" value="" style="endArrow=classic;html=1;rounded=0;" parent="1" source="ctIr4bB5rEvREcMylE48-194" edge="1">
          <mxGeometry width="50" height="50" relative="1" as="geometry">
            <mxPoint x="1254" y="564.5" as="sourcePoint" />
            <mxPoint x="1306" y="575.5" as="targetPoint" />
          </mxGeometry>
        </mxCell>
        <mxCell id="ctIr4bB5rEvREcMylE48-206" value="Registered User" style="edgeLabel;html=1;align=center;verticalAlign=middle;resizable=0;points=[];" parent="ctIr4bB5rEvREcMylE48-197" vertex="1" connectable="0">
          <mxGeometry x="-0.1594" relative="1" as="geometry">
            <mxPoint as="offset" />
          </mxGeometry>
        </mxCell>
        <mxCell id="ctIr4bB5rEvREcMylE48-208" value="View Furniture" style="whiteSpace=wrap;strokeWidth=2;" parent="1" vertex="1">
          <mxGeometry x="952" y="525.5" width="88" height="34" as="geometry" />
        </mxCell>
        <mxCell id="ctIr4bB5rEvREcMylE48-209" value="" style="endArrow=classic;html=1;rounded=0;" parent="1" edge="1">
          <mxGeometry width="50" height="50" relative="1" as="geometry">
            <mxPoint x="999.8300000000002" y="465.5" as="sourcePoint" />
            <mxPoint x="999.45" y="525.5" as="targetPoint" />
          </mxGeometry>
        </mxCell>
        <mxCell id="ctIr4bB5rEvREcMylE48-210" value="" style="shape=link;html=1;rounded=0;" parent="1" edge="1">
          <mxGeometry width="100" relative="1" as="geometry">
            <mxPoint x="1146" y="580.5" as="sourcePoint" />
            <mxPoint x="1486" y="580.5" as="targetPoint" />
          </mxGeometry>
        </mxCell>
        <mxCell id="ctIr4bB5rEvREcMylE48-211" value="" style="endArrow=classic;html=1;rounded=0;entryX=0.378;entryY=-0.111;entryDx=0;entryDy=0;entryPerimeter=0;" parent="1" edge="1">
          <mxGeometry width="50" height="50" relative="1" as="geometry">
            <mxPoint x="1239" y="583.5" as="sourcePoint" />
            <mxPoint x="1238.9580000000005" y="625.7260000000001" as="targetPoint" />
          </mxGeometry>
        </mxCell>
        <mxCell id="ctIr4bB5rEvREcMylE48-212" value="Viewing and Updating Cart" style="whiteSpace=wrap;strokeWidth=2;" parent="1" vertex="1">
          <mxGeometry x="1081" y="752.5" width="111" height="34" as="geometry" />
        </mxCell>
        <mxCell id="ctIr4bB5rEvREcMylE48-213" value="navigate cart" style="whiteSpace=wrap;strokeWidth=2;" parent="1" vertex="1">
          <mxGeometry x="1099.5" y="820.5" width="92.5" height="34" as="geometry" />
        </mxCell>
        <mxCell id="ctIr4bB5rEvREcMylE48-214" value="" style="endArrow=classic;html=1;rounded=0;" parent="1" edge="1">
          <mxGeometry width="50" height="50" relative="1" as="geometry">
            <mxPoint x="1141.4700000000003" y="789.5" as="sourcePoint" />
            <mxPoint x="1141.5" y="818.5" as="targetPoint" />
          </mxGeometry>
        </mxCell>
        <mxCell id="ctIr4bB5rEvREcMylE48-215" value="view items" style="whiteSpace=wrap;strokeWidth=2;" parent="1" vertex="1">
          <mxGeometry x="1099.5" y="885.5" width="80" height="34" as="geometry" />
        </mxCell>
        <mxCell id="ctIr4bB5rEvREcMylE48-216" value="" style="endArrow=classic;html=1;rounded=0;" parent="1" edge="1">
          <mxGeometry width="50" height="50" relative="1" as="geometry">
            <mxPoint x="1141.4700000000003" y="854.5" as="sourcePoint" />
            <mxPoint x="1141.5" y="883.5" as="targetPoint" />
          </mxGeometry>
        </mxCell>
        <mxCell id="ctIr4bB5rEvREcMylE48-217" value="Update quantities" style="whiteSpace=wrap;strokeWidth=2;" parent="1" vertex="1">
          <mxGeometry x="1094" y="957.5" width="96" height="34" as="geometry" />
        </mxCell>
        <mxCell id="ctIr4bB5rEvREcMylE48-218" value="" style="endArrow=classic;html=1;rounded=0;" parent="1" edge="1">
          <mxGeometry width="50" height="50" relative="1" as="geometry">
            <mxPoint x="1143.9700000000003" y="926.5" as="sourcePoint" />
            <mxPoint x="1144" y="955.5" as="targetPoint" />
          </mxGeometry>
        </mxCell>
        <mxCell id="ctIr4bB5rEvREcMylE48-219" value="Remove items" style="whiteSpace=wrap;strokeWidth=2;" parent="1" vertex="1">
          <mxGeometry x="1102" y="1022.5" width="80" height="34" as="geometry" />
        </mxCell>
        <mxCell id="ctIr4bB5rEvREcMylE48-220" value="" style="endArrow=classic;html=1;rounded=0;" parent="1" edge="1">
          <mxGeometry width="50" height="50" relative="1" as="geometry">
            <mxPoint x="1143.9700000000003" y="991.5" as="sourcePoint" />
            <mxPoint x="1144" y="1020.5" as="targetPoint" />
          </mxGeometry>
        </mxCell>
        <mxCell id="ctIr4bB5rEvREcMylE48-221" value="" style="endArrow=classic;html=1;rounded=0;" parent="1" edge="1">
          <mxGeometry width="50" height="50" relative="1" as="geometry">
            <mxPoint x="1146" y="714.5" as="sourcePoint" />
            <mxPoint x="1146" y="749.5" as="targetPoint" />
          </mxGeometry>
        </mxCell>
        <mxCell id="ctIr4bB5rEvREcMylE48-222" value="" style="endArrow=classic;html=1;rounded=0;entryX=0.378;entryY=-0.111;entryDx=0;entryDy=0;entryPerimeter=0;" parent="1" edge="1">
          <mxGeometry width="50" height="50" relative="1" as="geometry">
            <mxPoint x="1238.54" y="663.5" as="sourcePoint" />
            <mxPoint x="1238.4980000000005" y="705.7260000000001" as="targetPoint" />
          </mxGeometry>
        </mxCell>
        <mxCell id="ctIr4bB5rEvREcMylE48-223" value="" style="shape=link;html=1;rounded=0;" parent="1" edge="1">
          <mxGeometry width="100" relative="1" as="geometry">
            <mxPoint x="1146" y="710.5" as="sourcePoint" />
            <mxPoint x="1306" y="710.5" as="targetPoint" />
          </mxGeometry>
        </mxCell>
        <mxCell id="ctIr4bB5rEvREcMylE48-224" value="Enter shipping" style="whiteSpace=wrap;strokeWidth=2;" parent="1" vertex="1">
          <mxGeometry x="1261.5" y="819.5" width="80" height="34" as="geometry" />
        </mxCell>
        <mxCell id="ctIr4bB5rEvREcMylE48-225" value="" style="endArrow=classic;html=1;rounded=0;" parent="1" edge="1">
          <mxGeometry width="50" height="50" relative="1" as="geometry">
            <mxPoint x="1303.4700000000003" y="788.5" as="sourcePoint" />
            <mxPoint x="1303.5" y="817.5" as="targetPoint" />
          </mxGeometry>
        </mxCell>
        <mxCell id="ctIr4bB5rEvREcMylE48-230" value="Proceed to Checkout" style="whiteSpace=wrap;strokeWidth=2;" parent="1" vertex="1">
          <mxGeometry x="1238.5" y="752.5" width="111" height="34" as="geometry" />
        </mxCell>
        <mxCell id="ctIr4bB5rEvREcMylE48-231" value="" style="endArrow=classic;html=1;rounded=0;" parent="1" edge="1">
          <mxGeometry width="50" height="50" relative="1" as="geometry">
            <mxPoint x="1303.5" y="714.5" as="sourcePoint" />
            <mxPoint x="1303.5" y="749.5" as="targetPoint" />
          </mxGeometry>
        </mxCell>
        <mxCell id="ctIr4bB5rEvREcMylE48-232" value="Payment Information" style="whiteSpace=wrap;strokeWidth=2;" parent="1" vertex="1">
          <mxGeometry x="1255.5" y="890.5" width="111" height="34" as="geometry" />
        </mxCell>
        <mxCell id="ctIr4bB5rEvREcMylE48-234" value="" style="endArrow=classic;html=1;rounded=0;" parent="1" edge="1">
          <mxGeometry width="50" height="50" relative="1" as="geometry">
            <mxPoint x="1301.1300000000003" y="924.5" as="sourcePoint" />
            <mxPoint x="1301.16" y="953.5" as="targetPoint" />
          </mxGeometry>
        </mxCell>
        <mxCell id="ctIr4bB5rEvREcMylE48-243" value="" style="shape=link;html=1;rounded=0;" parent="1" edge="1">
          <mxGeometry width="100" relative="1" as="geometry">
            <mxPoint x="900" y="695.5" as="sourcePoint" />
            <mxPoint x="1000" y="695.5" as="targetPoint" />
          </mxGeometry>
        </mxCell>
        <mxCell id="ctIr4bB5rEvREcMylE48-244" value="Place Order" style="whiteSpace=wrap;strokeWidth=2;" parent="1" vertex="1">
          <mxGeometry x="1255.5" y="960.5" width="111" height="34" as="geometry" />
        </mxCell>
        <mxCell id="ctIr4bB5rEvREcMylE48-245" value="Confirm order" style="whiteSpace=wrap;strokeWidth=2;" parent="1" vertex="1">
          <mxGeometry x="1274" y="1028.5" width="92.5" height="34" as="geometry" />
        </mxCell>
        <mxCell id="ctIr4bB5rEvREcMylE48-246" value="" style="endArrow=classic;html=1;rounded=0;" parent="1" edge="1">
          <mxGeometry width="50" height="50" relative="1" as="geometry">
            <mxPoint x="1302.9700000000003" y="997.5" as="sourcePoint" />
            <mxPoint x="1303" y="1026.5" as="targetPoint" />
          </mxGeometry>
        </mxCell>
        <mxCell id="ctIr4bB5rEvREcMylE48-247" value="Process payment" style="whiteSpace=wrap;strokeWidth=2;" parent="1" vertex="1">
          <mxGeometry x="1274" y="1093.5" width="80" height="34" as="geometry" />
        </mxCell>
        <mxCell id="ctIr4bB5rEvREcMylE48-248" value="" style="endArrow=classic;html=1;rounded=0;" parent="1" edge="1">
          <mxGeometry width="50" height="50" relative="1" as="geometry">
            <mxPoint x="1303.9700000000003" y="1062.5" as="sourcePoint" />
            <mxPoint x="1304" y="1091.5" as="targetPoint" />
          </mxGeometry>
        </mxCell>
        <mxCell id="ctIr4bB5rEvREcMylE48-249" value="Generate confirmation" style="whiteSpace=wrap;strokeWidth=2;" parent="1" vertex="1">
          <mxGeometry x="930" y="1035.5" width="96" height="34" as="geometry" />
        </mxCell>
        <mxCell id="ctIr4bB5rEvREcMylE48-250" value="" style="endArrow=classic;html=1;rounded=0;entryX=1;entryY=0.5;entryDx=0;entryDy=0;exitX=0;exitY=0.5;exitDx=0;exitDy=0;" parent="1" edge="1" target="ctIr4bB5rEvREcMylE48-254" source="ctIr4bB5rEvREcMylE48-247">
          <mxGeometry width="50" height="50" relative="1" as="geometry">
            <mxPoint x="1306.4700000000003" y="1130.5" as="sourcePoint" />
            <mxPoint x="1190" y="1115.5" as="targetPoint" />
          </mxGeometry>
        </mxCell>
        <mxCell id="ctIr4bB5rEvREcMylE48-251" value="Prompt retry" style="whiteSpace=wrap;strokeWidth=2;" parent="1" vertex="1">
          <mxGeometry x="930" y="1105.5" width="80" height="34" as="geometry" />
        </mxCell>
        <mxCell id="ctIr4bB5rEvREcMylE48-252" value="" style="endArrow=classic;html=1;rounded=0;entryX=1;entryY=0.25;entryDx=0;entryDy=0;exitX=0;exitY=0.5;exitDx=0;exitDy=0;" parent="1" edge="1" target="ctIr4bB5rEvREcMylE48-251" source="ctIr4bB5rEvREcMylE48-254">
          <mxGeometry width="50" height="50" relative="1" as="geometry">
            <mxPoint x="1160" y="1135.5" as="sourcePoint" />
            <mxPoint x="1306.5" y="1250.5" as="targetPoint" />
          </mxGeometry>
        </mxCell>
        <mxCell id="ctIr4bB5rEvREcMylE48-257" value="failed" style="edgeLabel;html=1;align=center;verticalAlign=middle;resizable=0;points=[];" parent="ctIr4bB5rEvREcMylE48-252" vertex="1" connectable="0">
          <mxGeometry x="0.1393" y="-1" relative="1" as="geometry">
            <mxPoint as="offset" />
          </mxGeometry>
        </mxCell>
        <mxCell id="ctIr4bB5rEvREcMylE48-254" value="" style="rhombus;whiteSpace=wrap;html=1;" parent="1" vertex="1">
          <mxGeometry x="1138" y="1086.5" width="48" height="48" as="geometry" />
        </mxCell>
        <mxCell id="ctIr4bB5rEvREcMylE48-255" value="" style="endArrow=classic;html=1;rounded=0;entryX=1;entryY=0.5;entryDx=0;entryDy=0;" parent="1" edge="1" target="ctIr4bB5rEvREcMylE48-249">
          <mxGeometry width="50" height="50" relative="1" as="geometry">
            <mxPoint x="1136" y="1109.91" as="sourcePoint" />
            <mxPoint x="1036" y="1109.91" as="targetPoint" />
          </mxGeometry>
        </mxCell>
        <mxCell id="ctIr4bB5rEvREcMylE48-256" value="successful" style="edgeLabel;html=1;align=center;verticalAlign=middle;resizable=0;points=[];" parent="ctIr4bB5rEvREcMylE48-255" vertex="1" connectable="0">
          <mxGeometry x="-0.02" y="-2" relative="1" as="geometry">
            <mxPoint y="-2" as="offset" />
          </mxGeometry>
        </mxCell>
        <mxCell id="ctIr4bB5rEvREcMylE48-258" value="" style="endArrow=classic;html=1;rounded=0;" parent="1" edge="1">
          <mxGeometry width="50" height="50" relative="1" as="geometry">
            <mxPoint x="1303.13" y="855.5" as="sourcePoint" />
            <mxPoint x="1303.13" y="885.5" as="targetPoint" />
          </mxGeometry>
        </mxCell>
        <mxCell id="ctIr4bB5rEvREcMylE48-259" value="Writing Reviews" style="whiteSpace=wrap;strokeWidth=2;" parent="1" vertex="1">
          <mxGeometry x="1426" y="629.5" width="111" height="34" as="geometry" />
        </mxCell>
        <mxCell id="ctIr4bB5rEvREcMylE48-260" value="" style="endArrow=classic;html=1;rounded=0;entryX=0.378;entryY=-0.111;entryDx=0;entryDy=0;entryPerimeter=0;" parent="1" edge="1">
          <mxGeometry width="50" height="50" relative="1" as="geometry">
            <mxPoint x="1479" y="583.5" as="sourcePoint" />
            <mxPoint x="1478.9580000000005" y="625.7260000000001" as="targetPoint" />
          </mxGeometry>
        </mxCell>
        <mxCell id="ctIr4bB5rEvREcMylE48-261" value="Navigate history" style="whiteSpace=wrap;strokeWidth=2;" parent="1" vertex="1">
          <mxGeometry x="1442" y="694.5" width="94" height="34" as="geometry" />
        </mxCell>
        <mxCell id="ctIr4bB5rEvREcMylE48-262" value="Select item" style="whiteSpace=wrap;strokeWidth=2;" parent="1" vertex="1">
          <mxGeometry x="1436" y="765.5" width="111" height="34" as="geometry" />
        </mxCell>
        <mxCell id="ctIr4bB5rEvREcMylE48-263" value="" style="endArrow=classic;html=1;rounded=0;" parent="1" edge="1">
          <mxGeometry width="50" height="50" relative="1" as="geometry">
            <mxPoint x="1481.6300000000003" y="799.5" as="sourcePoint" />
            <mxPoint x="1481.66" y="828.5" as="targetPoint" />
          </mxGeometry>
        </mxCell>
        <mxCell id="ctIr4bB5rEvREcMylE48-264" value="Write review" style="whiteSpace=wrap;strokeWidth=2;" parent="1" vertex="1">
          <mxGeometry x="1436" y="835.5" width="111" height="34" as="geometry" />
        </mxCell>
        <mxCell id="ctIr4bB5rEvREcMylE48-265" value="Submit review" style="whiteSpace=wrap;strokeWidth=2;" parent="1" vertex="1">
          <mxGeometry x="1444.5" y="903.5" width="92.5" height="34" as="geometry" />
        </mxCell>
        <mxCell id="ctIr4bB5rEvREcMylE48-266" value="" style="endArrow=classic;html=1;rounded=0;" parent="1" edge="1">
          <mxGeometry width="50" height="50" relative="1" as="geometry">
            <mxPoint x="1483.4700000000003" y="872.5" as="sourcePoint" />
            <mxPoint x="1483.5" y="901.5" as="targetPoint" />
          </mxGeometry>
        </mxCell>
        <mxCell id="ctIr4bB5rEvREcMylE48-269" value="" style="endArrow=classic;html=1;rounded=0;" parent="1" edge="1">
          <mxGeometry width="50" height="50" relative="1" as="geometry">
            <mxPoint x="1483.63" y="730.5" as="sourcePoint" />
            <mxPoint x="1483.63" y="760.5" as="targetPoint" />
          </mxGeometry>
        </mxCell>
        <mxCell id="ctIr4bB5rEvREcMylE48-270" value="" style="endArrow=classic;html=1;rounded=0;" parent="1" edge="1">
          <mxGeometry width="50" height="50" relative="1" as="geometry">
            <mxPoint x="1481.5200000000002" y="663.5" as="sourcePoint" />
            <mxPoint x="1481.5200000000002" y="693.5" as="targetPoint" />
          </mxGeometry>
        </mxCell>
        <mxCell id="ctIr4bB5rEvREcMylE48-272" value="" style="shape=link;html=1;rounded=0;" parent="1" edge="1">
          <mxGeometry width="100" relative="1" as="geometry">
            <mxPoint x="1882" y="398.57" as="sourcePoint" />
            <mxPoint x="2072" y="398.57" as="targetPoint" />
          </mxGeometry>
        </mxCell>
        <mxCell id="ctIr4bB5rEvREcMylE48-273" value="" style="endArrow=classic;html=1;rounded=0;" parent="1" edge="1">
          <mxGeometry width="50" height="50" relative="1" as="geometry">
            <mxPoint x="1914" y="410" as="sourcePoint" />
            <mxPoint x="1864" y="460" as="targetPoint" />
          </mxGeometry>
        </mxCell>
        <mxCell id="ctIr4bB5rEvREcMylE48-274" value="" style="endArrow=classic;html=1;rounded=0;" parent="1" edge="1">
          <mxGeometry width="50" height="50" relative="1" as="geometry">
            <mxPoint x="2061" y="408" as="sourcePoint" />
            <mxPoint x="2092" y="458" as="targetPoint" />
          </mxGeometry>
        </mxCell>
        <mxCell id="ctIr4bB5rEvREcMylE48-275" value="Add listings" style="whiteSpace=wrap;strokeWidth=2;" parent="1" vertex="1">
          <mxGeometry x="1652" y="610" width="130" height="34" as="geometry" />
        </mxCell>
        <mxCell id="ctIr4bB5rEvREcMylE48-276" value="Update listings" style="whiteSpace=wrap;strokeWidth=2;" parent="1" vertex="1">
          <mxGeometry x="1652" y="679" width="130" height="34" as="geometry" />
        </mxCell>
        <mxCell id="ctIr4bB5rEvREcMylE48-277" value="Delete listings" style="whiteSpace=wrap;strokeWidth=2;" parent="1" vertex="1">
          <mxGeometry x="1652" y="753" width="130" height="34" as="geometry" />
        </mxCell>
        <mxCell id="ctIr4bB5rEvREcMylE48-278" value="" style="endArrow=classic;html=1;rounded=0;" parent="1" edge="1">
          <mxGeometry width="50" height="50" relative="1" as="geometry">
            <mxPoint x="1733.25" y="567" as="sourcePoint" />
            <mxPoint x="1732.75" y="604" as="targetPoint" />
          </mxGeometry>
        </mxCell>
        <mxCell id="ctIr4bB5rEvREcMylE48-283" value="" style="endArrow=classic;html=1;rounded=0;" parent="1" edge="1">
          <mxGeometry width="50" height="50" relative="1" as="geometry">
            <mxPoint x="1771.75" y="496" as="sourcePoint" />
            <mxPoint x="1748.25" y="533" as="targetPoint" />
          </mxGeometry>
        </mxCell>
        <mxCell id="GAehadIP4463e_Pyt7AQ-1" value="Navigate models" style="whiteSpace=wrap;strokeWidth=2;" parent="1" vertex="1">
          <mxGeometry x="1831" y="530.5" width="121" height="34" as="geometry" />
        </mxCell>
        <mxCell id="GAehadIP4463e_Pyt7AQ-2" value="" style="endArrow=classic;html=1;rounded=0;" parent="1" edge="1">
          <mxGeometry width="50" height="50" relative="1" as="geometry">
            <mxPoint x="1882" y="494" as="sourcePoint" />
            <mxPoint x="1898.5" y="530" as="targetPoint" />
          </mxGeometry>
        </mxCell>
        <mxCell id="GAehadIP4463e_Pyt7AQ-4" value="Add models" style="whiteSpace=wrap;strokeWidth=2;" parent="1" vertex="1">
          <mxGeometry x="1832" y="612.5" width="120" height="34" as="geometry" />
        </mxCell>
        <mxCell id="GAehadIP4463e_Pyt7AQ-5" value="Update models" style="whiteSpace=wrap;strokeWidth=2;" parent="1" vertex="1">
          <mxGeometry x="1832" y="681.5" width="120" height="34" as="geometry" />
        </mxCell>
        <mxCell id="GAehadIP4463e_Pyt7AQ-6" value="Delete models" style="whiteSpace=wrap;strokeWidth=2;" parent="1" vertex="1">
          <mxGeometry x="1832" y="755.5" width="120" height="34" as="geometry" />
        </mxCell>
        <mxCell id="GAehadIP4463e_Pyt7AQ-7" value="" style="endArrow=classic;html=1;rounded=0;" parent="1" edge="1">
          <mxGeometry width="50" height="50" relative="1" as="geometry">
            <mxPoint x="1898" y="570" as="sourcePoint" />
            <mxPoint x="1897.5" y="612.5" as="targetPoint" />
          </mxGeometry>
        </mxCell>
        <mxCell id="GAehadIP4463e_Pyt7AQ-9" value="" style="endArrow=classic;html=1;rounded=0;" parent="1" edge="1">
          <mxGeometry width="50" height="50" relative="1" as="geometry">
            <mxPoint x="1733.25" y="642" as="sourcePoint" />
            <mxPoint x="1732.75" y="679" as="targetPoint" />
          </mxGeometry>
        </mxCell>
        <mxCell id="GAehadIP4463e_Pyt7AQ-10" value="" style="endArrow=classic;html=1;rounded=0;" parent="1" edge="1">
          <mxGeometry width="50" height="50" relative="1" as="geometry">
            <mxPoint x="1733.25" y="715.5" as="sourcePoint" />
            <mxPoint x="1732.75" y="752.5" as="targetPoint" />
          </mxGeometry>
        </mxCell>
        <mxCell id="GAehadIP4463e_Pyt7AQ-12" value="" style="endArrow=classic;html=1;rounded=0;" parent="1" edge="1">
          <mxGeometry width="50" height="50" relative="1" as="geometry">
            <mxPoint x="1897.25" y="646.5" as="sourcePoint" />
            <mxPoint x="1897" y="680" as="targetPoint" />
          </mxGeometry>
        </mxCell>
        <mxCell id="GAehadIP4463e_Pyt7AQ-13" value="" style="endArrow=classic;html=1;rounded=0;" parent="1" edge="1">
          <mxGeometry width="50" height="50" relative="1" as="geometry">
            <mxPoint x="1897.25" y="718.5" as="sourcePoint" />
            <mxPoint x="1896.75" y="755.5" as="targetPoint" />
          </mxGeometry>
        </mxCell>
        <mxCell id="GAehadIP4463e_Pyt7AQ-14" value="Navigate orders" style="whiteSpace=wrap;strokeWidth=2;" parent="1" vertex="1">
          <mxGeometry x="2066" y="530.5" width="96" height="34" as="geometry" />
        </mxCell>
        <mxCell id="GAehadIP4463e_Pyt7AQ-15" value="View status" style="whiteSpace=wrap;strokeWidth=2;" parent="1" vertex="1">
          <mxGeometry x="2066" y="610" width="96" height="34" as="geometry" />
        </mxCell>
        <mxCell id="GAehadIP4463e_Pyt7AQ-16" value="Update status" style="whiteSpace=wrap;strokeWidth=2;" parent="1" vertex="1">
          <mxGeometry x="2066" y="679" width="96" height="34" as="geometry" />
        </mxCell>
        <mxCell id="GAehadIP4463e_Pyt7AQ-17" value="Generate reports" style="whiteSpace=wrap;strokeWidth=2;" parent="1" vertex="1">
          <mxGeometry x="2066" y="753" width="96" height="34" as="geometry" />
        </mxCell>
        <mxCell id="GAehadIP4463e_Pyt7AQ-18" value="" style="endArrow=classic;html=1;rounded=0;" parent="1" edge="1">
          <mxGeometry width="50" height="50" relative="1" as="geometry">
            <mxPoint x="2116" y="567.5" as="sourcePoint" />
            <mxPoint x="2115.5" y="610" as="targetPoint" />
          </mxGeometry>
        </mxCell>
        <mxCell id="GAehadIP4463e_Pyt7AQ-19" value="" style="endArrow=classic;html=1;rounded=0;" parent="1" edge="1">
          <mxGeometry width="50" height="50" relative="1" as="geometry">
            <mxPoint x="2115.25" y="644" as="sourcePoint" />
            <mxPoint x="2115" y="677.5" as="targetPoint" />
          </mxGeometry>
        </mxCell>
        <mxCell id="GAehadIP4463e_Pyt7AQ-20" value="" style="endArrow=classic;html=1;rounded=0;" parent="1" edge="1">
          <mxGeometry width="50" height="50" relative="1" as="geometry">
            <mxPoint x="2115.25" y="716" as="sourcePoint" />
            <mxPoint x="2114.75" y="753" as="targetPoint" />
          </mxGeometry>
        </mxCell>
        <mxCell id="GAehadIP4463e_Pyt7AQ-21" value="" style="endArrow=classic;html=1;rounded=0;" parent="1" edge="1">
          <mxGeometry width="50" height="50" relative="1" as="geometry">
            <mxPoint x="2115" y="500" as="sourcePoint" />
            <mxPoint x="2114.52" y="530.5" as="targetPoint" />
          </mxGeometry>
        </mxCell>
        <mxCell id="GAehadIP4463e_Pyt7AQ-22" value="Logout" style="whiteSpace=wrap;strokeWidth=2;" parent="1" vertex="1">
          <mxGeometry x="1702" y="854" width="162" height="34" as="geometry" />
        </mxCell>
        <mxCell id="GAehadIP4463e_Pyt7AQ-23" value="" style="endArrow=classic;html=1;rounded=0;" parent="1" edge="1">
          <mxGeometry width="50" height="50" relative="1" as="geometry">
            <mxPoint x="1990" y="400" as="sourcePoint" />
            <mxPoint x="1872" y="870" as="targetPoint" />
            <Array as="points">
              <mxPoint x="1990" y="870" />
            </Array>
          </mxGeometry>
        </mxCell>
        <mxCell id="GAehadIP4463e_Pyt7AQ-25" value="" style="endArrow=classic;html=1;rounded=0;" parent="1" edge="1">
          <mxGeometry width="50" height="50" relative="1" as="geometry">
            <mxPoint x="1400" y="617" as="sourcePoint" />
            <mxPoint x="1790" y="900" as="targetPoint" />
            <Array as="points">
              <mxPoint x="1400" y="1000" />
              <mxPoint x="1720" y="1000" />
              <mxPoint x="1790" y="1000" />
            </Array>
          </mxGeometry>
        </mxCell>
      </root>
    </mxGraphModel>
  </diagram>
</mxfile>
